
=== 2026-04-23T07:20:17.089Z node gen-criaprof.js pediatra ===

[criaprof:pediatra] 50 imagens em /home/nmaldaner/projetos/timesmkt3/prj/inema/videos/criaprof/pediatra_2026-04-23/imgs

── 1/50 ── cena01-ini.png
[inemaimg] model=flux2-klein quality=fast ratio=1:1 (512x512) steps=4
[inemaimg] prompt: Cozy 1980s Brazilian home with a living room where a baby is crying and a mother soothes them, warm afternoon light spil...
[inemaimg] ✅ saved: /home/nmaldaner/projetos/timesmkt3/prj/inema/videos/criaprof/pediatra_2026-04-23/imgs/cena01-ini.png  (server=2.13s wall=2.2s vram=32.3GB)
── 2/50 ── cena01-fim.png
[inemaimg] model=flux2-klein quality=fast ratio=1:1 (512x512) steps=4
[inemaimg] prompt: Brazilian woman with warm light skin, shoulder-length dark brown hair, bright kind eyes, gentle nurturing authority, abo...
[inemaimg] ✅ saved: /home/nmaldaner/projetos/timesmkt3/prj/inema/videos/criaprof/pediatra_2026-04-23/imgs/cena01-fim.png  (server=2.13s wall=2.2s vram=32.3GB)
── 3/50 ── cena02-ini.png
[inemaimg] model=flux2-klein quality=fast ratio=1:1 (512x512) steps=4
[inemaimg] prompt: 1980s brazilian bedroom with a plastic doctor's kit with a toy otoscope and thermometer sitting on a bedspread, old wood...
[inemaimg] ✅ saved: /home/nmaldaner/projetos/timesmkt3/prj/inema/videos/criaprof/pediatra_2026-04-23/imgs/cena02-ini.png  (server=2.12s wall=2.2s vram=32.3GB)
── 4/50 ── cena02-fim.png
[inemaimg] model=flux2-klein quality=fast ratio=1:1 (512x512) steps=4
[inemaimg] prompt: Brazilian woman with warm light skin, shoulder-length dark brown hair, bright kind eyes, gentle nurturing authority, abo...
[inemaimg] ✅ saved: /home/nmaldaner/projetos/timesmkt3/prj/inema/videos/criaprof/pediatra_2026-04-23/imgs/cena02-fim.png  (server=2.13s wall=2.2s vram=32.3GB)
── 5/50 ── cena03-ini.png
[inemaimg] model=flux2-klein quality=fast ratio=1:1 (512x512) steps=4
[inemaimg] prompt: 1980s brazilian public school classroom with wooden desks, chalkboard with a drawing of a baby's growth chart on the cha...
[inemaimg] ✅ saved: /home/nmaldaner/projetos/timesmkt3/prj/inema/videos/criaprof/pediatra_2026-04-23/imgs/cena03-ini.png  (server=2.12s wall=2.2s vram=32.3GB)
── 6/50 ── cena03-fim.png
[inemaimg] model=flux2-klein quality=fast ratio=1:1 (512x512) steps=4
[inemaimg] prompt: Brazilian woman with warm light skin, shoulder-length dark brown hair, bright kind eyes, gentle nurturing authority, abo...
[inemaimg] ✅ saved: /home/nmaldaner/projetos/timesmkt3/prj/inema/videos/criaprof/pediatra_2026-04-23/imgs/cena03-fim.png  (server=2.13s wall=2.2s vram=32.3GB)
── 7/50 ── cena04-ini.png
[inemaimg] model=flux2-klein quality=fast ratio=1:1 (512x512) steps=4
[inemaimg] prompt: Warm family living room 1980s with a an old pediatric manual from a family bookshelf on a crochet tablecloth, old TV tub...
[inemaimg] ✅ saved: /home/nmaldaner/projetos/timesmkt3/prj/inema/videos/criaprof/pediatra_2026-04-23/imgs/cena04-ini.png  (server=2.12s wall=2.2s vram=32.3GB)
── 8/50 ── cena04-fim.png
[inemaimg] model=flux2-klein quality=fast ratio=1:1 (512x512) steps=4
[inemaimg] prompt: Brazilian woman with warm light skin, shoulder-length dark brown hair, bright kind eyes, gentle nurturing authority, abo...
[inemaimg] ✅ saved: /home/nmaldaner/projetos/timesmkt3/prj/inema/videos/criaprof/pediatra_2026-04-23/imgs/cena04-fim.png  (server=2.12s wall=2.2s vram=32.3GB)
── 9/50 ── cena05-ini.png
[inemaimg] model=flux2-klein quality=fast ratio=1:1 (512x512) steps=4
[inemaimg] prompt: Early 1990s brazilian home scene with a little cousin with a fever, a damp cloth and a thermometer, muted afternoon ligh...
[inemaimg] ✅ saved: /home/nmaldaner/projetos/timesmkt3/prj/inema/videos/criaprof/pediatra_2026-04-23/imgs/cena05-ini.png  (server=2.13s wall=2.2s vram=32.3GB)
── 10/50 ── cena05-fim.png
[inemaimg] model=flux2-klein quality=fast ratio=1:1 (512x512) steps=4
[inemaimg] prompt: Brazilian woman with warm light skin, shoulder-length dark brown hair, bright kind eyes, gentle nurturing authority, abo...
[inemaimg] ✅ saved: /home/nmaldaner/projetos/timesmkt3/prj/inema/videos/criaprof/pediatra_2026-04-23/imgs/cena05-fim.png  (server=2.12s wall=2.2s vram=32.3GB)
── 11/50 ── cena06-ini.png
[inemaimg] model=flux2-klein quality=fast ratio=1:1 (512x512) steps=4
[inemaimg] prompt: 1990s brazilian classroom with a child-development milestones poster on the wall, a notebook open on a wooden desk, afte...
[inemaimg] ✅ saved: /home/nmaldaner/projetos/timesmkt3/prj/inema/videos/criaprof/pediatra_2026-04-23/imgs/cena06-ini.png  (server=2.13s wall=2.2s vram=32.3GB)
── 12/50 ── cena06-fim.png
[inemaimg] model=flux2-klein quality=fast ratio=1:1 (512x512) steps=4
[inemaimg] prompt: Brazilian woman with warm light skin, shoulder-length dark brown hair, bright kind eyes, gentle nurturing authority, abo...
[inemaimg] ✅ saved: /home/nmaldaner/projetos/timesmkt3/prj/inema/videos/criaprof/pediatra_2026-04-23/imgs/cena06-fim.png  (server=2.12s wall=2.2s vram=32.3GB)
── 13/50 ── cena07-ini.png
[inemaimg] model=flux2-klein quality=fast ratio=1:1 (512x512) steps=4
[inemaimg] prompt: Late 1990s brazilian teen bedroom with pediatric books, colored pens, a scheduled vaccination card, posters on wall, boo...
[inemaimg] ✅ saved: /home/nmaldaner/projetos/timesmkt3/prj/inema/videos/criaprof/pediatra_2026-04-23/imgs/cena07-ini.png  (server=2.12s wall=2.2s vram=32.3GB)
── 14/50 ── cena07-fim.png
[inemaimg] model=flux2-klein quality=fast ratio=1:1 (512x512) steps=4
[inemaimg] prompt: Brazilian woman with warm light skin, shoulder-length dark brown hair, bright kind eyes, gentle nurturing authority, abo...
[inemaimg] ✅ saved: /home/nmaldaner/projetos/timesmkt3/prj/inema/videos/criaprof/pediatra_2026-04-23/imgs/cena07-fim.png  (server=2.12s wall=2.2s vram=32.3GB)
── 15/50 ── cena08-ini.png
[inemaimg] model=flux2-klein quality=fast ratio=1:1 (512x512) steps=4
[inemaimg] prompt: Late 1990s brazilian dining table with a medicine faculty brochure and pediatrics residency pamphlet (course catalog, ve...
[inemaimg] ✅ saved: /home/nmaldaner/projetos/timesmkt3/prj/inema/videos/criaprof/pediatra_2026-04-23/imgs/cena08-ini.png  (server=2.12s wall=2.2s vram=32.3GB)
── 16/50 ── cena08-fim.png
[inemaimg] model=flux2-klein quality=fast ratio=1:1 (512x512) steps=4
[inemaimg] prompt: Brazilian woman with warm light skin, shoulder-length dark brown hair, bright kind eyes, gentle nurturing authority, abo...
[inemaimg] ✅ saved: /home/nmaldaner/projetos/timesmkt3/prj/inema/videos/criaprof/pediatra_2026-04-23/imgs/cena08-fim.png  (server=2.13s wall=2.2s vram=32.3GB)
── 17/50 ── cena09-ini.png
[inemaimg] model=flux2-klein quality=fast ratio=1:1 (512x512) steps=4
[inemaimg] prompt: Early 2000s brazilian medical school hallway with bulletin board, backpacks on the floor, natural daylight through tall ...
[inemaimg] ✅ saved: /home/nmaldaner/projetos/timesmkt3/prj/inema/videos/criaprof/pediatra_2026-04-23/imgs/cena09-ini.png  (server=2.12s wall=2.2s vram=32.3GB)
── 18/50 ── cena09-fim.png
[inemaimg] model=flux2-klein quality=fast ratio=1:1 (512x512) steps=4
[inemaimg] prompt: Brazilian woman with warm light skin, shoulder-length dark brown hair, bright kind eyes, gentle nurturing authority, abo...
[inemaimg] ✅ saved: /home/nmaldaner/projetos/timesmkt3/prj/inema/videos/criaprof/pediatra_2026-04-23/imgs/cena09-fim.png  (server=2.12s wall=2.2s vram=32.3GB)
── 19/50 ── cena10-ini.png
[inemaimg] model=flux2-klein quality=fast ratio=1:1 (512x512) steps=4
[inemaimg] prompt: University study room with pediatric textbooks and a toy for clinical examination practice, notebooks piled, coffee cup,...
[inemaimg] ✅ saved: /home/nmaldaner/projetos/timesmkt3/prj/inema/videos/criaprof/pediatra_2026-04-23/imgs/cena10-ini.png  (server=2.12s wall=2.2s vram=32.3GB)
── 20/50 ── cena10-fim.png
[inemaimg] model=flux2-klein quality=fast ratio=1:1 (512x512) steps=4
[inemaimg] prompt: Brazilian woman with warm light skin, shoulder-length dark brown hair, bright kind eyes, gentle nurturing authority, abo...
[inemaimg] ✅ saved: /home/nmaldaner/projetos/timesmkt3/prj/inema/videos/criaprof/pediatra_2026-04-23/imgs/cena10-fim.png  (server=2.13s wall=2.2s vram=32.3GB)
── 21/50 ── cena11-ini.png
[inemaimg] model=flux2-klein quality=fast ratio=1:1 (512x512) steps=4
[inemaimg] prompt: Small pediatric hospital ward with a pediatric exam table with colorful decorations, a bear-shaped stethoscope, soft neu...
[inemaimg] ✅ saved: /home/nmaldaner/projetos/timesmkt3/prj/inema/videos/criaprof/pediatra_2026-04-23/imgs/cena11-ini.png  (server=2.12s wall=2.2s vram=32.3GB)
── 22/50 ── cena11-fim.png
[inemaimg] model=flux2-klein quality=fast ratio=1:1 (512x512) steps=4
[inemaimg] prompt: Brazilian woman with warm light skin, shoulder-length dark brown hair, bright kind eyes, gentle nurturing authority, abo...
[inemaimg] ✅ saved: /home/nmaldaner/projetos/timesmkt3/prj/inema/videos/criaprof/pediatra_2026-04-23/imgs/cena11-fim.png  (server=2.12s wall=2.2s vram=32.3GB)
── 23/50 ── cena12-ini.png
[inemaimg] model=flux2-klein quality=fast ratio=1:1 (512x512) steps=4
[inemaimg] prompt: Early 2000s graduation scene, empty graduation cap and diploma on a table, family photograph nearby, soft warm light, ci...
[inemaimg] ✅ saved: /home/nmaldaner/projetos/timesmkt3/prj/inema/videos/criaprof/pediatra_2026-04-23/imgs/cena12-ini.png  (server=2.12s wall=2.2s vram=32.3GB)
── 24/50 ── cena12-fim.png
[inemaimg] model=flux2-klein quality=fast ratio=1:1 (512x512) steps=4
[inemaimg] prompt: Brazilian woman with warm light skin, shoulder-length dark brown hair, bright kind eyes, gentle nurturing authority, abo...
[inemaimg] ✅ saved: /home/nmaldaner/projetos/timesmkt3/prj/inema/videos/criaprof/pediatra_2026-04-23/imgs/cena12-fim.png  (server=2.13s wall=2.2s vram=32.3GB)
── 25/50 ── cena13-ini.png
[inemaimg] model=flux2-klein quality=fast ratio=1:1 (512x512) steps=4
[inemaimg] prompt: bright colorful pediatric clinic in 2000s with a classic stethoscope with a pediatric bell and paper growth charts on a ...
[inemaimg] ✅ saved: /home/nmaldaner/projetos/timesmkt3/prj/inema/videos/criaprof/pediatra_2026-04-23/imgs/cena13-ini.png  (server=2.13s wall=2.2s vram=32.3GB)
── 26/50 ── cena13-fim.png
[inemaimg] model=flux2-klein quality=fast ratio=1:1 (512x512) steps=4
[inemaimg] prompt: Brazilian woman with warm light skin, shoulder-length dark brown hair, bright kind eyes, gentle nurturing authority, abo...
[inemaimg] ✅ saved: /home/nmaldaner/projetos/timesmkt3/prj/inema/videos/criaprof/pediatra_2026-04-23/imgs/cena13-fim.png  (server=2.13s wall=2.2s vram=32.3GB)
── 27/50 ── cena14-ini.png
[inemaimg] model=flux2-klein quality=fast ratio=1:1 (512x512) steps=4
[inemaimg] prompt: Well-organized bright colorful pediatric clinic with colorful wall decorations, vaccine fridge, toys on the exam table, ...
[inemaimg] ✅ saved: /home/nmaldaner/projetos/timesmkt3/prj/inema/videos/criaprof/pediatra_2026-04-23/imgs/cena14-ini.png  (server=2.13s wall=2.2s vram=32.3GB)
── 28/50 ── cena14-fim.png
[inemaimg] model=flux2-klein quality=fast ratio=1:1 (512x512) steps=4
[inemaimg] prompt: Brazilian woman with warm light skin, shoulder-length dark brown hair, bright kind eyes, gentle nurturing authority, abo...
[inemaimg] ✅ saved: /home/nmaldaner/projetos/timesmkt3/prj/inema/videos/criaprof/pediatra_2026-04-23/imgs/cena14-fim.png  (server=2.12s wall=2.2s vram=32.3GB)
── 29/50 ── cena15-ini.png
[inemaimg] model=flux2-klein quality=fast ratio=1:1 (512x512) steps=4
[inemaimg] prompt: bright colorful pediatric clinic set up for a pediatric consultation, chairs or bed positioned, natural light, cinematic...
[inemaimg] ✅ saved: /home/nmaldaner/projetos/timesmkt3/prj/inema/videos/criaprof/pediatra_2026-04-23/imgs/cena15-ini.png  (server=2.12s wall=2.2s vram=32.3GB)
── 30/50 ── cena15-fim.png
[inemaimg] model=flux2-klein quality=fast ratio=1:1 (512x512) steps=4
[inemaimg] prompt: Brazilian woman with warm light skin, shoulder-length dark brown hair, bright kind eyes, gentle nurturing authority, abo...
[inemaimg] ✅ saved: /home/nmaldaner/projetos/timesmkt3/prj/inema/videos/criaprof/pediatra_2026-04-23/imgs/cena15-fim.png  (server=2.13s wall=2.2s vram=32.3GB)
── 31/50 ── cena16-ini.png
[inemaimg] model=flux2-klein quality=fast ratio=1:1 (512x512) steps=4
[inemaimg] prompt: bright colorful pediatric clinic in 2010s with a desktop monitor showing pediatric EMR with growth curves, cables visibl...
[inemaimg] ✅ saved: /home/nmaldaner/projetos/timesmkt3/prj/inema/videos/criaprof/pediatra_2026-04-23/imgs/cena16-ini.png  (server=2.13s wall=2.2s vram=32.3GB)
── 32/50 ── cena16-fim.png
[inemaimg] model=flux2-klein quality=fast ratio=1:1 (512x512) steps=4
[inemaimg] prompt: Brazilian woman with warm light skin, shoulder-length dark brown hair, bright kind eyes, gentle nurturing authority, abo...
[inemaimg] ✅ saved: /home/nmaldaner/projetos/timesmkt3/prj/inema/videos/criaprof/pediatra_2026-04-23/imgs/cena16-fim.png  (server=2.13s wall=2.2s vram=32.3GB)
── 33/50 ── cena17-ini.png
[inemaimg] model=flux2-klein quality=fast ratio=1:1 (512x512) steps=4
[inemaimg] prompt: Close-up on a smartphone running a pediatric vaccine-reminder parent app next to a classic stethoscope with a pediatric ...
[inemaimg] ✅ saved: /home/nmaldaner/projetos/timesmkt3/prj/inema/videos/criaprof/pediatra_2026-04-23/imgs/cena17-ini.png  (server=2.12s wall=2.2s vram=32.3GB)
── 34/50 ── cena17-fim.png
[inemaimg] model=flux2-klein quality=fast ratio=1:1 (512x512) steps=4
[inemaimg] prompt: Brazilian woman with warm light skin, shoulder-length dark brown hair, bright kind eyes, gentle nurturing authority, abo...
[inemaimg] ✅ saved: /home/nmaldaner/projetos/timesmkt3/prj/inema/videos/criaprof/pediatra_2026-04-23/imgs/cena17-fim.png  (server=2.12s wall=2.2s vram=32.3GB)
── 35/50 ── cena18-ini.png
[inemaimg] model=flux2-klein quality=fast ratio=1:1 (512x512) steps=4
[inemaimg] prompt: bright colorful pediatric clinic with a tripod smartphone set up for child-health educational video for parents, ring li...
[inemaimg] ✅ saved: /home/nmaldaner/projetos/timesmkt3/prj/inema/videos/criaprof/pediatra_2026-04-23/imgs/cena18-ini.png  (server=2.12s wall=2.2s vram=32.3GB)
── 36/50 ── cena18-fim.png
[inemaimg] model=flux2-klein quality=fast ratio=1:1 (512x512) steps=4
[inemaimg] prompt: Brazilian woman with warm light skin, shoulder-length dark brown hair, bright kind eyes, gentle nurturing authority, abo...
[inemaimg] ✅ saved: /home/nmaldaner/projetos/timesmkt3/prj/inema/videos/criaprof/pediatra_2026-04-23/imgs/cena18-fim.png  (server=2.13s wall=2.2s vram=32.3GB)
── 37/50 ── cena19-ini.png
[inemaimg] model=flux2-klein quality=fast ratio=1:1 (512x512) steps=4
[inemaimg] prompt: Home office with a laptop showing a video-call pediatric telehealth consultation, soft daylight, 2020-era improvised wor...
[inemaimg] ✅ saved: /home/nmaldaner/projetos/timesmkt3/prj/inema/videos/criaprof/pediatra_2026-04-23/imgs/cena19-ini.png  (server=2.12s wall=2.2s vram=32.3GB)
── 38/50 ── cena19-fim.png
[inemaimg] model=flux2-klein quality=fast ratio=1:1 (512x512) steps=4
[inemaimg] prompt: Brazilian woman with warm light skin, shoulder-length dark brown hair, bright kind eyes, gentle nurturing authority, abo...
[inemaimg] ✅ saved: /home/nmaldaner/projetos/timesmkt3/prj/inema/videos/criaprof/pediatra_2026-04-23/imgs/cena19-fim.png  (server=2.13s wall=2.2s vram=32.3GB)
── 39/50 ── cena20-ini.png
[inemaimg] model=flux2-klein quality=fast ratio=1:1 (512x512) steps=4
[inemaimg] prompt: Close-up of a monitor showing a child-growth percentile dashboard, modern clinical/professional UI, teal accents, soft a...
[inemaimg] ✅ saved: /home/nmaldaner/projetos/timesmkt3/prj/inema/videos/criaprof/pediatra_2026-04-23/imgs/cena20-ini.png  (server=2.12s wall=2.2s vram=32.3GB)
── 40/50 ── cena20-fim.png
[inemaimg] model=flux2-klein quality=fast ratio=1:1 (512x512) steps=4
[inemaimg] prompt: Brazilian woman with warm light skin, shoulder-length dark brown hair, bright kind eyes, gentle nurturing authority, abo...
[inemaimg] ✅ saved: /home/nmaldaner/projetos/timesmkt3/prj/inema/videos/criaprof/pediatra_2026-04-23/imgs/cena20-fim.png  (server=2.13s wall=2.2s vram=32.3GB)
── 41/50 ── cena21-ini.png
[inemaimg] model=flux2-klein quality=fast ratio=1:1 (512x512) steps=4
[inemaimg] prompt: Clean modern screen showing an AI pediatric developmental-screening tool with personalized output and progress charts, s...
[inemaimg] ✅ saved: /home/nmaldaner/projetos/timesmkt3/prj/inema/videos/criaprof/pediatra_2026-04-23/imgs/cena21-ini.png  (server=2.12s wall=2.2s vram=32.3GB)
── 42/50 ── cena21-fim.png
[inemaimg] model=flux2-klein quality=fast ratio=1:1 (512x512) steps=4
[inemaimg] prompt: Brazilian woman with warm light skin, shoulder-length dark brown hair, bright kind eyes, gentle nurturing authority, abo...
[inemaimg] ✅ saved: /home/nmaldaner/projetos/timesmkt3/prj/inema/videos/criaprof/pediatra_2026-04-23/imgs/cena21-fim.png  (server=2.13s wall=2.2s vram=32.3GB)
── 43/50 ── cena22-ini.png
[inemaimg] model=flux2-klein quality=fast ratio=1:1 (512x512) steps=4
[inemaimg] prompt: bright colorful pediatric clinic with a an AI photo-based skin-rash classifier on a clinic tablet subtly integrated into...
[inemaimg] ✅ saved: /home/nmaldaner/projetos/timesmkt3/prj/inema/videos/criaprof/pediatra_2026-04-23/imgs/cena22-ini.png  (server=2.13s wall=2.2s vram=32.3GB)
── 44/50 ── cena22-fim.png
[inemaimg] model=flux2-klein quality=fast ratio=1:1 (512x512) steps=4
[inemaimg] prompt: Brazilian woman with warm light skin, shoulder-length dark brown hair, bright kind eyes, gentle nurturing authority, abo...
[inemaimg] ✅ saved: /home/nmaldaner/projetos/timesmkt3/prj/inema/videos/criaprof/pediatra_2026-04-23/imgs/cena22-fim.png  (server=2.13s wall=2.2s vram=32.3GB)
── 45/50 ── cena23-ini.png
[inemaimg] model=flux2-klein quality=fast ratio=1:1 (512x512) steps=4
[inemaimg] prompt: bright colorful pediatric clinic with a junior colleague's notebook open, older mentor's hand gesturing to explain, soft...
[inemaimg] ✅ saved: /home/nmaldaner/projetos/timesmkt3/prj/inema/videos/criaprof/pediatra_2026-04-23/imgs/cena23-ini.png  (server=2.13s wall=2.2s vram=32.3GB)
── 46/50 ── cena23-fim.png
[inemaimg] model=flux2-klein quality=fast ratio=1:1 (512x512) steps=4
[inemaimg] prompt: Brazilian woman with warm light skin, shoulder-length dark brown hair, bright kind eyes, gentle nurturing authority, abo...
[inemaimg] ✅ saved: /home/nmaldaner/projetos/timesmkt3/prj/inema/videos/criaprof/pediatra_2026-04-23/imgs/cena23-fim.png  (server=2.13s wall=2.2s vram=32.3GB)
── 47/50 ── cena24-ini.png
[inemaimg] model=flux2-klein quality=fast ratio=1:1 (512x512) steps=4
[inemaimg] prompt: Bright modern bright colorful pediatric clinic space with equipment and tools in soft out-of-focus background, warm-cool...
[inemaimg] ✅ saved: /home/nmaldaner/projetos/timesmkt3/prj/inema/videos/criaprof/pediatra_2026-04-23/imgs/cena24-ini.png  (server=2.13s wall=2.2s vram=32.3GB)
── 48/50 ── cena24-fim.png
[inemaimg] model=flux2-klein quality=fast ratio=1:1 (512x512) steps=4
[inemaimg] prompt: Heroic cinematic close-up portrait of the same Brazilian woman with warm light skin, shoulder-length dark brown hair, br...
[inemaimg] ✅ saved: /home/nmaldaner/projetos/timesmkt3/prj/inema/videos/criaprof/pediatra_2026-04-23/imgs/cena24-fim.png  (server=2.13s wall=2.2s vram=32.3GB)
── 49/50 ── cena25-ini.png
[inemaimg] model=flux2-klein quality=fast ratio=1:1 (512x512) steps=4
[inemaimg] prompt: Wide cinematic shot of bright colorful pediatric clinic bathed in golden-hour window light, equipment arranged, sense of...
[inemaimg] ✅ saved: /home/nmaldaner/projetos/timesmkt3/prj/inema/videos/criaprof/pediatra_2026-04-23/imgs/cena25-ini.png  (server=2.13s wall=2.2s vram=32.3GB)
── 50/50 ── cena25-fim.png
[inemaimg] model=flux2-klein quality=fast ratio=1:1 (512x512) steps=4
[inemaimg] prompt: Wide cinematic shot of the same Brazilian woman with warm light skin, shoulder-length dark brown hair, bright kind eyes,...
[inemaimg] ✅ saved: /home/nmaldaner/projetos/timesmkt3/prj/inema/videos/criaprof/pediatra_2026-04-23/imgs/cena25-fim.png  (server=2.14s wall=2.2s vram=32.3GB)

[criaprof:pediatra] ✅ 50/50 em 110.0s (fails=0)

=== 2026-04-23T07:22:07.173Z node gen-gertran-nostalgia.js pediatra ===

[gertran-nostalgia:pediatra] 20 imagens em /home/nmaldaner/projetos/timesmkt3/prj/inema/videos/gertran-nostalgia/pediatra_2026-04-23/imgs

── 1/20 ── nost01.png
[inemaimg] model=flux2-klein quality=fast ratio=1:1 (512x512) steps=4
[inemaimg] prompt: Close-up of a 1980s brazilian pediatric vaccination card with hand-stamped entries, shot on 35mm film, cinematic grading...
[inemaimg] ✅ saved: /home/nmaldaner/projetos/timesmkt3/prj/inema/videos/gertran-nostalgia/pediatra_2026-04-23/imgs/nost01.png  (server=2.14s wall=2.2s vram=32.3GB)
── 2/20 ── nost02.png
[inemaimg] model=flux2-klein quality=fast ratio=1:1 (512x512) steps=4
[inemaimg] prompt: Vintage pediatric clinic with a height chart on the wall and wooden toys on a shelf, shot on 35mm film, cinematic gradin...
[inemaimg] ✅ saved: /home/nmaldaner/projetos/timesmkt3/prj/inema/videos/gertran-nostalgia/pediatra_2026-04-23/imgs/nost02.png  (server=2.14s wall=2.2s vram=32.3GB)
── 3/20 ── nost03.png
[inemaimg] model=flux2-klein quality=fast ratio=1:1 (512x512) steps=4
[inemaimg] prompt: Old children's medical manual open on a desk with notes in the margins, shot on 35mm film, cinematic grading, warm tungs...
[inemaimg] ✅ saved: /home/nmaldaner/projetos/timesmkt3/prj/inema/videos/gertran-nostalgia/pediatra_2026-04-23/imgs/nost03.png  (server=2.14s wall=2.2s vram=32.3GB)
── 4/20 ── nost04.png
[inemaimg] model=flux2-klein quality=fast ratio=1:1 (512x512) steps=4
[inemaimg] prompt: Early 2000s pediatric office with a desktop computer showing growth-chart software, cinematic, shallow depth of field, n...
[inemaimg] ✅ saved: /home/nmaldaner/projetos/timesmkt3/prj/inema/videos/gertran-nostalgia/pediatra_2026-04-23/imgs/nost04.png  (server=2.13s wall=2.2s vram=32.3GB)
── 5/20 ── nost05.png
[inemaimg] model=flux2-klein quality=fast ratio=1:1 (512x512) steps=4
[inemaimg] prompt: Close-up of a smartphone running a pediatric vaccine-reminder app for parents, cinematic, shallow depth of field, natura...
[inemaimg] ✅ saved: /home/nmaldaner/projetos/timesmkt3/prj/inema/videos/gertran-nostalgia/pediatra_2026-04-23/imgs/nost05.png  (server=2.13s wall=2.2s vram=32.3GB)
── 6/20 ── nost06.png
[inemaimg] model=flux2-klein quality=fast ratio=1:1 (512x512) steps=4
[inemaimg] prompt: A laptop showing a pediatric teleconsultation with a child visible on screen, cinematic, shallow depth of field, natural...
[inemaimg] ✅ saved: /home/nmaldaner/projetos/timesmkt3/prj/inema/videos/gertran-nostalgia/pediatra_2026-04-23/imgs/nost06.png  (server=2.14s wall=2.2s vram=32.3GB)
── 7/20 ── nost07.png
[inemaimg] model=flux2-klein quality=fast ratio=1:1 (512x512) steps=4
[inemaimg] prompt: Modern tablet showing AI developmental-screening checklist with progress visualizations, neo-noir clinical lighting, sof...
[inemaimg] ✅ saved: /home/nmaldaner/projetos/timesmkt3/prj/inema/videos/gertran-nostalgia/pediatra_2026-04-23/imgs/nost07.png  (server=2.14s wall=2.2s vram=32.3GB)
── 8/20 ── nost08.png
[inemaimg] model=flux2-klein quality=fast ratio=1:1 (512x512) steps=4
[inemaimg] prompt: Pediatrician using an AI skin-rash classifier on a phone held over a child's arm, neo-noir clinical lighting, soft glass...
[inemaimg] ✅ saved: /home/nmaldaner/projetos/timesmkt3/prj/inema/videos/gertran-nostalgia/pediatra_2026-04-23/imgs/nost08.png  (server=2.13s wall=2.2s vram=32.3GB)
── 9/20 ── nost09.png
[inemaimg] model=flux2-klein quality=fast ratio=1:1 (512x512) steps=4
[inemaimg] prompt: Cinematic wide shot of a modern bright pediatric clinic integrating care and AI tools, neo-noir clinical lighting, soft ...
[inemaimg] ✅ saved: /home/nmaldaner/projetos/timesmkt3/prj/inema/videos/gertran-nostalgia/pediatra_2026-04-23/imgs/nost09.png  (server=2.12s wall=2.2s vram=32.3GB)
── 10/20 ── nost10.png
[inemaimg] model=flux2-klein quality=fast ratio=1:1 (512x512) steps=4
[inemaimg] prompt: Nostalgic 1980s brazilian bright colorful pediatric clinic with analog tools and warm afternoon light, shot on 35mm film...
[inemaimg] ✅ saved: /home/nmaldaner/projetos/timesmkt3/prj/inema/videos/gertran-nostalgia/pediatra_2026-04-23/imgs/nost10.png  (server=2.13s wall=2.2s vram=32.3GB)
── 11/20 ── nost11.png
[inemaimg] model=flux2-klein quality=fast ratio=1:1 (512x512) steps=4
[inemaimg] prompt: Close-up of a hand-written note from the 1980s with blue ink, shot on 35mm film, cinematic grading, warm tungsten light,...
[inemaimg] ✅ saved: /home/nmaldaner/projetos/timesmkt3/prj/inema/videos/gertran-nostalgia/pediatra_2026-04-23/imgs/nost11.png  (server=2.14s wall=2.2s vram=32.3GB)
── 12/20 ── nost12.png
[inemaimg] model=flux2-klein quality=fast ratio=1:1 (512x512) steps=4
[inemaimg] prompt: Vintage a classic stethoscope with a pediatric bell and paper growth charts on a wooden surface, 1980s domestic warmth, ...
[inemaimg] ✅ saved: /home/nmaldaner/projetos/timesmkt3/prj/inema/videos/gertran-nostalgia/pediatra_2026-04-23/imgs/nost12.png  (server=2.12s wall=2.2s vram=32.3GB)
── 13/20 ── nost13.png
[inemaimg] model=flux2-klein quality=fast ratio=1:1 (512x512) steps=4
[inemaimg] prompt: Early 2000s bright colorful pediatric clinic with a desktop computer showing pediatric EMR with growth curves, cinematic...
[inemaimg] ✅ saved: /home/nmaldaner/projetos/timesmkt3/prj/inema/videos/gertran-nostalgia/pediatra_2026-04-23/imgs/nost13.png  (server=2.14s wall=2.2s vram=32.3GB)
── 14/20 ── nost14.png
[inemaimg] model=flux2-klein quality=fast ratio=1:1 (512x512) steps=4
[inemaimg] prompt: Close-up of a smartphone running a pediatric vaccine-reminder parent app next to a classic stethoscope with a pediatric ...
[inemaimg] ✅ saved: /home/nmaldaner/projetos/timesmkt3/prj/inema/videos/gertran-nostalgia/pediatra_2026-04-23/imgs/nost14.png  (server=2.14s wall=2.2s vram=32.3GB)
── 15/20 ── nost15.png
[inemaimg] model=flux2-klein quality=fast ratio=1:1 (512x512) steps=4
[inemaimg] prompt: A laptop showing a pediatric telehealth consultation session, 2020-era improvised home workspace, cinematic, shallow dep...
[inemaimg] ✅ saved: /home/nmaldaner/projetos/timesmkt3/prj/inema/videos/gertran-nostalgia/pediatra_2026-04-23/imgs/nost15.png  (server=2.12s wall=2.2s vram=32.3GB)
── 16/20 ── nost16.png
[inemaimg] model=flux2-klein quality=fast ratio=1:1 (512x512) steps=4
[inemaimg] prompt: Modern monitor showing a child-growth percentile dashboard with teal UI accents, neo-noir clinical lighting, soft glassm...
[inemaimg] ✅ saved: /home/nmaldaner/projetos/timesmkt3/prj/inema/videos/gertran-nostalgia/pediatra_2026-04-23/imgs/nost16.png  (server=2.13s wall=2.2s vram=32.3GB)
── 17/20 ── nost17.png
[inemaimg] model=flux2-klein quality=fast ratio=1:1 (512x512) steps=4
[inemaimg] prompt: Close-up of an AI photo-based skin-rash classifier on a clinic tablet running on a tablet, professional hand swiping, ne...
[inemaimg] ✅ saved: /home/nmaldaner/projetos/timesmkt3/prj/inema/videos/gertran-nostalgia/pediatra_2026-04-23/imgs/nost17.png  (server=2.13s wall=2.2s vram=32.3GB)
── 18/20 ── nost18.png
[inemaimg] model=flux2-klein quality=fast ratio=1:1 (512x512) steps=4
[inemaimg] prompt: Cinematic wide shot of a modern bright colorful pediatric clinic integrating classic expertise and AI technology, neo-no...
[inemaimg] ✅ saved: /home/nmaldaner/projetos/timesmkt3/prj/inema/videos/gertran-nostalgia/pediatra_2026-04-23/imgs/nost18.png  (server=2.14s wall=2.3s vram=32.3GB)
── 19/20 ── nost19.png
[inemaimg] model=flux2-klein quality=fast ratio=1:1 (512x512) steps=4
[inemaimg] prompt: Nostalgic 1980s brazilian bright colorful pediatric clinic with analog tools and warm afternoon light, shot on 35mm film...
[inemaimg] ✅ saved: /home/nmaldaner/projetos/timesmkt3/prj/inema/videos/gertran-nostalgia/pediatra_2026-04-23/imgs/nost19.png  (server=2.13s wall=2.2s vram=32.3GB)
── 20/20 ── nost20.png
[inemaimg] model=flux2-klein quality=fast ratio=1:1 (512x512) steps=4
[inemaimg] prompt: Close-up of a hand-written note from the 1980s with blue ink, shot on 35mm film, cinematic grading, warm tungsten light,...
[inemaimg] ✅ saved: /home/nmaldaner/projetos/timesmkt3/prj/inema/videos/gertran-nostalgia/pediatra_2026-04-23/imgs/nost20.png  (server=2.15s wall=2.2s vram=32.3GB)

[gertran-nostalgia:pediatra] ✅ 20/20 em 44.2s (fails=0)

=== 2026-04-23T07:22:51.450Z node pipeline/generate-audio.js /tmp/narr/narr-criaprof-pediatra.mp3 Você foi a criança que cuidava dos menores no recreio. Estudou cada fase, virou pediatra, acompanhou milhares crescerem. Viu a caderneta de vacina virar app, a curva virar dashboard, a consulta virar videochamada. Agora a IA rastreia marcos do desenvolvimento. Você continua sendo a que tranquiliza a mãe. Continue aprendendo no Inema ponto CLUB. bella ===
  ✅ Chatterbox VC saved: /tmp/narr/narr-criaprof-pediatra.mp3 (voice rachel, 346 chars)
✅ Audio saved: /tmp/narr/narr-criaprof-pediatra.mp3
Provider: chatterbox-vc

=== 2026-04-23T07:22:55.689Z node pipeline/generate-audio.js /tmp/narr/narr-gertran-pediatra.mp3 Você viu a caderneta virar app, a curva virar dashboard, o atendimento virar remoto. Você se adaptou sempre. Agora chegou a inteligência artificial. E você sabe o que fazer. Você é da geração que transforma. Continue aprendendo no Inema ponto CLUB. bella ===
  ✅ Chatterbox VC saved: /tmp/narr/narr-gertran-pediatra.mp3 (voice rachel, 248 chars)
✅ Audio saved: /tmp/narr/narr-gertran-pediatra.mp3
Provider: chatterbox-vc

=== 2026-04-23T07:22:59.664Z source /home/nmaldaner/miniconda3/etc/profile.d/conda.sh && conda activate chatterbox && python3 transcribe-words.py /tmp/narr/narr-criaprof-pediatra.mp3 /tmp/narr/whisper-criaprof-pediatra.json && python3 transcribe-words.py /tmp/narr/narr-gertran-pediatra.mp3 /tmp/narr/whisper-gertran-pediatra.json ===
[whisper] device=cuda loading large-v3...
/home/nmaldaner/miniconda3/envs/chatterbox/lib/python3.11/site-packages/torch/cuda/__init__.py:435: UserWarning: 
    Found GPU0 NVIDIA GB10 which is of cuda capability 12.1.
    Minimum and Maximum cuda capability supported by this version of PyTorch is
    (8.0) - (12.0)
    
  queued_call()
  0%|          | 0/2344 [00:00<?, ?frames/s]100%|██████████| 2344/2344 [00:05<00:00, 464.36frames/s]100%|██████████| 2344/2344 [00:05<00:00, 464.35frames/s]
[whisper] 54 palavras -> 16 chunks -> /tmp/narr/whisper-criaprof-pediatra.json
[whisper] device=cuda loading large-v3...
/home/nmaldaner/miniconda3/envs/chatterbox/lib/python3.11/site-packages/torch/cuda/__init__.py:435: UserWarning: 
    Found GPU0 NVIDIA GB10 which is of cuda capability 12.1.
    Minimum and Maximum cuda capability supported by this version of PyTorch is
    (8.0) - (12.0)
    
  queued_call()
  0%|          | 0/1684 [00:00<?, ?frames/s]100%|██████████| 1684/1684 [00:03<00:00, 428.03frames/s]100%|██████████| 1684/1684 [00:03<00:00, 428.01frames/s]
[whisper] 40 palavras -> 11 chunks -> /tmp/narr/whisper-gertran-pediatra.json

=== 2026-04-23T07:23:29.118Z node render-criaprof.js pediatra ===
[pediatra] detectou N_SCENES=25
[pediatra] 16 captions via whisper (offset +0.8s)
[pediatra] render -> /home/nmaldaner/projetos/timesmkt3/prj/inema/videos/criaprof/pediatra_2026-04-23/video/pediatra-criaprof.mp4
ffmpeg version 6.1.1-3ubuntu5 Copyright (c) 2000-2023 the FFmpeg developers
  built with gcc 13 (Ubuntu 13.2.0-23ubuntu3)
  configuration: --prefix=/usr --extra-version=3ubuntu5 --toolchain=hardened --libdir=/usr/lib/aarch64-linux-gnu --incdir=/usr/include/aarch64-linux-gnu --arch=arm64 --enable-gpl --disable-stripping --disable-omx --enable-gnutls --enable-libaom --enable-libass --enable-libbs2b --enable-libcaca --enable-libcdio --enable-libcodec2 --enable-libdav1d --enable-libflite --enable-libfontconfig --enable-libfreetype --enable-libfribidi --enable-libglslang --enable-libgme --enable-libgsm --enable-libharfbuzz --enable-libmp3lame --enable-libmysofa --enable-libopenjpeg --enable-libopenmpt --enable-libopus --enable-librubberband --enable-libshine --enable-libsnappy --enable-libsoxr --enable-libspeex --enable-libtheora --enable-libtwolame --enable-libvidstab --enable-libvorbis --enable-libvpx --enable-libwebp --enable-libx265 --enable-libxml2 --enable-libxvid --enable-libzimg --enable-openal --enable-opencl --enable-opengl --disable-sndio --enable-libdc1394 --enable-libdrm --enable-libiec61883 --enable-chromaprint --enable-frei0r --enable-ladspa --enable-libbluray --enable-libjack --enable-libpulse --enable-librabbitmq --enable-librist --enable-libsrt --enable-libssh --enable-libsvtav1 --enable-libx264 --enable-libzmq --enable-libzvbi --enable-lv2 --enable-sdl2 --enable-libplacebo --enable-librav1e --enable-pocketsphinx --enable-librsvg --enable-libjxl --enable-shared
  libavutil      58. 29.100 / 58. 29.100
  libavcodec     60. 31.102 / 60. 31.102
  libavformat    60. 16.100 / 60. 16.100
  libavdevice    60.  3.100 / 60.  3.100
  libavfilter     9. 12.100 /  9. 12.100
  libswscale      7.  5.100 /  7.  5.100
  libswresample   4. 12.100 /  4. 12.100
  libpostproc    57.  3.100 / 57.  3.100
Input #0, png_pipe, from '/home/nmaldaner/projetos/timesmkt3/prj/inema/videos/criaprof/pediatra_2026-04-23/imgs/cena01-ini.png':
  Duration: N/A, bitrate: N/A
  Stream #0:0: Video: png, rgb24(pc, gbr/unknown/unknown), 512x512, 1 fps, 1 tbr, 1 tbn
Input #1, png_pipe, from '/home/nmaldaner/projetos/timesmkt3/prj/inema/videos/criaprof/pediatra_2026-04-23/imgs/cena01-fim.png':
  Duration: N/A, bitrate: N/A
  Stream #1:0: Video: png, rgb24(pc, gbr/unknown/unknown), 512x512, 1 fps, 1 tbr, 1 tbn
Input #2, png_pipe, from '/home/nmaldaner/projetos/timesmkt3/prj/inema/videos/criaprof/pediatra_2026-04-23/imgs/cena02-ini.png':
  Duration: N/A, bitrate: N/A
  Stream #2:0: Video: png, rgb24(pc, gbr/unknown/unknown), 512x512, 1 fps, 1 tbr, 1 tbn
Input #3, png_pipe, from '/home/nmaldaner/projetos/timesmkt3/prj/inema/videos/criaprof/pediatra_2026-04-23/imgs/cena02-fim.png':
  Duration: N/A, bitrate: N/A
  Stream #3:0: Video: png, rgb24(pc, gbr/unknown/unknown), 512x512, 1 fps, 1 tbr, 1 tbn
Input #4, png_pipe, from '/home/nmaldaner/projetos/timesmkt3/prj/inema/videos/criaprof/pediatra_2026-04-23/imgs/cena03-ini.png':
  Duration: N/A, bitrate: N/A
  Stream #4:0: Video: png, rgb24(pc, gbr/unknown/unknown), 512x512, 1 fps, 1 tbr, 1 tbn
Input #5, png_pipe, from '/home/nmaldaner/projetos/timesmkt3/prj/inema/videos/criaprof/pediatra_2026-04-23/imgs/cena03-fim.png':
  Duration: N/A, bitrate: N/A
  Stream #5:0: Video: png, rgb24(pc, gbr/unknown/unknown), 512x512, 1 fps, 1 tbr, 1 tbn
Input #6, png_pipe, from '/home/nmaldaner/projetos/timesmkt3/prj/inema/videos/criaprof/pediatra_2026-04-23/imgs/cena04-ini.png':
  Duration: N/A, bitrate: N/A
  Stream #6:0: Video: png, rgb24(pc, gbr/unknown/unknown), 512x512, 1 fps, 1 tbr, 1 tbn
Input #7, png_pipe, from '/home/nmaldaner/projetos/timesmkt3/prj/inema/videos/criaprof/pediatra_2026-04-23/imgs/cena04-fim.png':
  Duration: N/A, bitrate: N/A
  Stream #7:0: Video: png, rgb24(pc, gbr/unknown/unknown), 512x512, 1 fps, 1 tbr, 1 tbn
Input #8, png_pipe, from '/home/nmaldaner/projetos/timesmkt3/prj/inema/videos/criaprof/pediatra_2026-04-23/imgs/cena05-ini.png':
  Duration: N/A, bitrate: N/A
  Stream #8:0: Video: png, rgb24(pc, gbr/unknown/unknown), 512x512, 1 fps, 1 tbr, 1 tbn
Input #9, png_pipe, from '/home/nmaldaner/projetos/timesmkt3/prj/inema/videos/criaprof/pediatra_2026-04-23/imgs/cena05-fim.png':
  Duration: N/A, bitrate: N/A
  Stream #9:0: Video: png, rgb24(pc, gbr/unknown/unknown), 512x512, 1 fps, 1 tbr, 1 tbn
Input #10, png_pipe, from '/home/nmaldaner/projetos/timesmkt3/prj/inema/videos/criaprof/pediatra_2026-04-23/imgs/cena06-ini.png':
  Duration: N/A, bitrate: N/A
  Stream #10:0: Video: png, rgb24(pc, gbr/unknown/unknown), 512x512, 1 fps, 1 tbr, 1 tbn
Input #11, png_pipe, from '/home/nmaldaner/projetos/timesmkt3/prj/inema/videos/criaprof/pediatra_2026-04-23/imgs/cena06-fim.png':
  Duration: N/A, bitrate: N/A
  Stream #11:0: Video: png, rgb24(pc, gbr/unknown/unknown), 512x512, 1 fps, 1 tbr, 1 tbn
Input #12, png_pipe, from '/home/nmaldaner/projetos/timesmkt3/prj/inema/videos/criaprof/pediatra_2026-04-23/imgs/cena07-ini.png':
  Duration: N/A, bitrate: N/A
  Stream #12:0: Video: png, rgb24(pc, gbr/unknown/unknown), 512x512, 1 fps, 1 tbr, 1 tbn
Input #13, png_pipe, from '/home/nmaldaner/projetos/timesmkt3/prj/inema/videos/criaprof/pediatra_2026-04-23/imgs/cena07-fim.png':
  Duration: N/A, bitrate: N/A
  Stream #13:0: Video: png, rgb24(pc, gbr/unknown/unknown), 512x512, 1 fps, 1 tbr, 1 tbn
Input #14, png_pipe, from '/home/nmaldaner/projetos/timesmkt3/prj/inema/videos/criaprof/pediatra_2026-04-23/imgs/cena08-ini.png':
  Duration: N/A, bitrate: N/A
  Stream #14:0: Video: png, rgb24(pc, gbr/unknown/unknown), 512x512, 1 fps, 1 tbr, 1 tbn
Input #15, png_pipe, from '/home/nmaldaner/projetos/timesmkt3/prj/inema/videos/criaprof/pediatra_2026-04-23/imgs/cena08-fim.png':
  Duration: N/A, bitrate: N/A
  Stream #15:0: Video: png, rgb24(pc, gbr/unknown/unknown), 512x512, 1 fps, 1 tbr, 1 tbn
Input #16, png_pipe, from '/home/nmaldaner/projetos/timesmkt3/prj/inema/videos/criaprof/pediatra_2026-04-23/imgs/cena09-ini.png':
  Duration: N/A, bitrate: N/A
  Stream #16:0: Video: png, rgb24(pc, gbr/unknown/unknown), 512x512, 1 fps, 1 tbr, 1 tbn
Input #17, png_pipe, from '/home/nmaldaner/projetos/timesmkt3/prj/inema/videos/criaprof/pediatra_2026-04-23/imgs/cena09-fim.png':
  Duration: N/A, bitrate: N/A
  Stream #17:0: Video: png, rgb24(pc, gbr/unknown/unknown), 512x512, 1 fps, 1 tbr, 1 tbn
Input #18, png_pipe, from '/home/nmaldaner/projetos/timesmkt3/prj/inema/videos/criaprof/pediatra_2026-04-23/imgs/cena10-ini.png':
  Duration: N/A, bitrate: N/A
  Stream #18:0: Video: png, rgb24(pc, gbr/unknown/unknown), 512x512, 1 fps, 1 tbr, 1 tbn
Input #19, png_pipe, from '/home/nmaldaner/projetos/timesmkt3/prj/inema/videos/criaprof/pediatra_2026-04-23/imgs/cena10-fim.png':
  Duration: N/A, bitrate: N/A
  Stream #19:0: Video: png, rgb24(pc, gbr/unknown/unknown), 512x512, 1 fps, 1 tbr, 1 tbn
Input #20, png_pipe, from '/home/nmaldaner/projetos/timesmkt3/prj/inema/videos/criaprof/pediatra_2026-04-23/imgs/cena11-ini.png':
  Duration: N/A, bitrate: N/A
  Stream #20:0: Video: png, rgb24(pc, gbr/unknown/unknown), 512x512, 1 fps, 1 tbr, 1 tbn
Input #21, png_pipe, from '/home/nmaldaner/projetos/timesmkt3/prj/inema/videos/criaprof/pediatra_2026-04-23/imgs/cena11-fim.png':
  Duration: N/A, bitrate: N/A
  Stream #21:0: Video: png, rgb24(pc, gbr/unknown/unknown), 512x512, 1 fps, 1 tbr, 1 tbn
Input #22, png_pipe, from '/home/nmaldaner/projetos/timesmkt3/prj/inema/videos/criaprof/pediatra_2026-04-23/imgs/cena12-ini.png':
  Duration: N/A, bitrate: N/A
  Stream #22:0: Video: png, rgb24(pc, gbr/unknown/unknown), 512x512, 1 fps, 1 tbr, 1 tbn
Input #23, png_pipe, from '/home/nmaldaner/projetos/timesmkt3/prj/inema/videos/criaprof/pediatra_2026-04-23/imgs/cena12-fim.png':
  Duration: N/A, bitrate: N/A
  Stream #23:0: Video: png, rgb24(pc, gbr/unknown/unknown), 512x512, 1 fps, 1 tbr, 1 tbn
Input #24, png_pipe, from '/home/nmaldaner/projetos/timesmkt3/prj/inema/videos/criaprof/pediatra_2026-04-23/imgs/cena13-ini.png':
  Duration: N/A, bitrate: N/A
  Stream #24:0: Video: png, rgb24(pc, gbr/unknown/unknown), 512x512, 1 fps, 1 tbr, 1 tbn
Input #25, png_pipe, from '/home/nmaldaner/projetos/timesmkt3/prj/inema/videos/criaprof/pediatra_2026-04-23/imgs/cena13-fim.png':
  Duration: N/A, bitrate: N/A
  Stream #25:0: Video: png, rgb24(pc, gbr/unknown/unknown), 512x512, 1 fps, 1 tbr, 1 tbn
Input #26, png_pipe, from '/home/nmaldaner/projetos/timesmkt3/prj/inema/videos/criaprof/pediatra_2026-04-23/imgs/cena14-ini.png':
  Duration: N/A, bitrate: N/A
  Stream #26:0: Video: png, rgb24(pc, gbr/unknown/unknown), 512x512, 1 fps, 1 tbr, 1 tbn
Input #27, png_pipe, from '/home/nmaldaner/projetos/timesmkt3/prj/inema/videos/criaprof/pediatra_2026-04-23/imgs/cena14-fim.png':
  Duration: N/A, bitrate: N/A
  Stream #27:0: Video: png, rgb24(pc, gbr/unknown/unknown), 512x512, 1 fps, 1 tbr, 1 tbn
Input #28, png_pipe, from '/home/nmaldaner/projetos/timesmkt3/prj/inema/videos/criaprof/pediatra_2026-04-23/imgs/cena15-ini.png':
  Duration: N/A, bitrate: N/A
  Stream #28:0: Video: png, rgb24(pc, gbr/unknown/unknown), 512x512, 1 fps, 1 tbr, 1 tbn
Input #29, png_pipe, from '/home/nmaldaner/projetos/timesmkt3/prj/inema/videos/criaprof/pediatra_2026-04-23/imgs/cena15-fim.png':
  Duration: N/A, bitrate: N/A
  Stream #29:0: Video: png, rgb24(pc, gbr/unknown/unknown), 512x512, 1 fps, 1 tbr, 1 tbn
Input #30, png_pipe, from '/home/nmaldaner/projetos/timesmkt3/prj/inema/videos/criaprof/pediatra_2026-04-23/imgs/cena16-ini.png':
  Duration: N/A, bitrate: N/A
  Stream #30:0: Video: png, rgb24(pc, gbr/unknown/unknown), 512x512, 1 fps, 1 tbr, 1 tbn
Input #31, png_pipe, from '/home/nmaldaner/projetos/timesmkt3/prj/inema/videos/criaprof/pediatra_2026-04-23/imgs/cena16-fim.png':
  Duration: N/A, bitrate: N/A
  Stream #31:0: Video: png, rgb24(pc, gbr/unknown/unknown), 512x512, 1 fps, 1 tbr, 1 tbn
Input #32, png_pipe, from '/home/nmaldaner/projetos/timesmkt3/prj/inema/videos/criaprof/pediatra_2026-04-23/imgs/cena17-ini.png':
  Duration: N/A, bitrate: N/A
  Stream #32:0: Video: png, rgb24(pc, gbr/unknown/unknown), 512x512, 1 fps, 1 tbr, 1 tbn
Input #33, png_pipe, from '/home/nmaldaner/projetos/timesmkt3/prj/inema/videos/criaprof/pediatra_2026-04-23/imgs/cena17-fim.png':
  Duration: N/A, bitrate: N/A
  Stream #33:0: Video: png, rgb24(pc, gbr/unknown/unknown), 512x512, 1 fps, 1 tbr, 1 tbn
Input #34, png_pipe, from '/home/nmaldaner/projetos/timesmkt3/prj/inema/videos/criaprof/pediatra_2026-04-23/imgs/cena18-ini.png':
  Duration: N/A, bitrate: N/A
  Stream #34:0: Video: png, rgb24(pc, gbr/unknown/unknown), 512x512, 1 fps, 1 tbr, 1 tbn
Input #35, png_pipe, from '/home/nmaldaner/projetos/timesmkt3/prj/inema/videos/criaprof/pediatra_2026-04-23/imgs/cena18-fim.png':
  Duration: N/A, bitrate: N/A
  Stream #35:0: Video: png, rgb24(pc, gbr/unknown/unknown), 512x512, 1 fps, 1 tbr, 1 tbn
Input #36, png_pipe, from '/home/nmaldaner/projetos/timesmkt3/prj/inema/videos/criaprof/pediatra_2026-04-23/imgs/cena19-ini.png':
  Duration: N/A, bitrate: N/A
  Stream #36:0: Video: png, rgb24(pc, gbr/unknown/unknown), 512x512, 1 fps, 1 tbr, 1 tbn
Input #37, png_pipe, from '/home/nmaldaner/projetos/timesmkt3/prj/inema/videos/criaprof/pediatra_2026-04-23/imgs/cena19-fim.png':
  Duration: N/A, bitrate: N/A
  Stream #37:0: Video: png, rgb24(pc, gbr/unknown/unknown), 512x512, 1 fps, 1 tbr, 1 tbn
Input #38, png_pipe, from '/home/nmaldaner/projetos/timesmkt3/prj/inema/videos/criaprof/pediatra_2026-04-23/imgs/cena20-ini.png':
  Duration: N/A, bitrate: N/A
  Stream #38:0: Video: png, rgb24(pc, gbr/unknown/unknown), 512x512, 1 fps, 1 tbr, 1 tbn
Input #39, png_pipe, from '/home/nmaldaner/projetos/timesmkt3/prj/inema/videos/criaprof/pediatra_2026-04-23/imgs/cena20-fim.png':
  Duration: N/A, bitrate: N/A
  Stream #39:0: Video: png, rgb24(pc, gbr/unknown/unknown), 512x512, 1 fps, 1 tbr, 1 tbn
Input #40, png_pipe, from '/home/nmaldaner/projetos/timesmkt3/prj/inema/videos/criaprof/pediatra_2026-04-23/imgs/cena21-ini.png':
  Duration: N/A, bitrate: N/A
  Stream #40:0: Video: png, rgb24(pc, gbr/unknown/unknown), 512x512, 1 fps, 1 tbr, 1 tbn
Input #41, png_pipe, from '/home/nmaldaner/projetos/timesmkt3/prj/inema/videos/criaprof/pediatra_2026-04-23/imgs/cena21-fim.png':
  Duration: N/A, bitrate: N/A
  Stream #41:0: Video: png, rgb24(pc, gbr/unknown/unknown), 512x512, 1 fps, 1 tbr, 1 tbn
Input #42, png_pipe, from '/home/nmaldaner/projetos/timesmkt3/prj/inema/videos/criaprof/pediatra_2026-04-23/imgs/cena22-ini.png':
  Duration: N/A, bitrate: N/A
  Stream #42:0: Video: png, rgb24(pc, gbr/unknown/unknown), 512x512, 1 fps, 1 tbr, 1 tbn
Input #43, png_pipe, from '/home/nmaldaner/projetos/timesmkt3/prj/inema/videos/criaprof/pediatra_2026-04-23/imgs/cena22-fim.png':
  Duration: N/A, bitrate: N/A
  Stream #43:0: Video: png, rgb24(pc, gbr/unknown/unknown), 512x512, 1 fps, 1 tbr, 1 tbn
Input #44, png_pipe, from '/home/nmaldaner/projetos/timesmkt3/prj/inema/videos/criaprof/pediatra_2026-04-23/imgs/cena23-ini.png':
  Duration: N/A, bitrate: N/A
  Stream #44:0: Video: png, rgb24(pc, gbr/unknown/unknown), 512x512, 1 fps, 1 tbr, 1 tbn
Input #45, png_pipe, from '/home/nmaldaner/projetos/timesmkt3/prj/inema/videos/criaprof/pediatra_2026-04-23/imgs/cena23-fim.png':
  Duration: N/A, bitrate: N/A
  Stream #45:0: Video: png, rgb24(pc, gbr/unknown/unknown), 512x512, 1 fps, 1 tbr, 1 tbn
Input #46, png_pipe, from '/home/nmaldaner/projetos/timesmkt3/prj/inema/videos/criaprof/pediatra_2026-04-23/imgs/cena24-ini.png':
  Duration: N/A, bitrate: N/A
  Stream #46:0: Video: png, rgb24(pc, gbr/unknown/unknown), 512x512, 1 fps, 1 tbr, 1 tbn
Input #47, png_pipe, from '/home/nmaldaner/projetos/timesmkt3/prj/inema/videos/criaprof/pediatra_2026-04-23/imgs/cena24-fim.png':
  Duration: N/A, bitrate: N/A
  Stream #47:0: Video: png, rgb24(pc, gbr/unknown/unknown), 512x512, 1 fps, 1 tbr, 1 tbn
Input #48, png_pipe, from '/home/nmaldaner/projetos/timesmkt3/prj/inema/videos/criaprof/pediatra_2026-04-23/imgs/cena25-ini.png':
  Duration: N/A, bitrate: N/A
  Stream #48:0: Video: png, rgb24(pc, gbr/unknown/unknown), 512x512, 1 fps, 1 tbr, 1 tbn
Input #49, png_pipe, from '/home/nmaldaner/projetos/timesmkt3/prj/inema/videos/criaprof/pediatra_2026-04-23/imgs/cena25-fim.png':
  Duration: N/A, bitrate: N/A
  Stream #49:0: Video: png, rgb24(pc, gbr/unknown/unknown), 512x512, 1 fps, 1 tbr, 1 tbn
Input #50, mp3, from '/tmp/musica_video/mulheres/freesound_719036_Melancholy_Background_Piano__-_bpm_112_l.mp3':
  Duration: 00:01:08.60, start: 0.025057, bitrate: 191 kb/s
  Stream #50:0: Audio: mp3, 44100 Hz, stereo, fltp, 191 kb/s
    Metadata:
      encoder         : LAME3.100
    Side data:
      replaygain: track gain - -5.600000, track peak - unknown, album gain - unknown, album peak - unknown, 
Input #51, mp3, from '/tmp/narr/narr-criaprof-pediatra.mp3':
  Metadata:
    encoder         : Lavf60.16.100
  Duration: 00:00:23.50, start: 0.046042, bitrate: 128 kb/s
  Stream #51:0: Audio: mp3, 24000 Hz, mono, fltp, 128 kb/s
Stream mapping:
  Stream #0:0 (png) -> zoompan:default
  Stream #1:0 (png) -> zoompan:default
  Stream #2:0 (png) -> zoompan:default
  Stream #3:0 (png) -> zoompan:default
  Stream #4:0 (png) -> zoompan:default
  Stream #5:0 (png) -> zoompan:default
  Stream #6:0 (png) -> zoompan:default
  Stream #7:0 (png) -> zoompan:default
  Stream #8:0 (png) -> zoompan:default
  Stream #9:0 (png) -> zoompan:default
  Stream #10:0 (png) -> zoompan:default
  Stream #11:0 (png) -> zoompan:default
  Stream #12:0 (png) -> zoompan:default
  Stream #13:0 (png) -> zoompan:default
  Stream #14:0 (png) -> zoompan:default
  Stream #15:0 (png) -> zoompan:default
  Stream #16:0 (png) -> zoompan:default
  Stream #17:0 (png) -> zoompan:default
  Stream #18:0 (png) -> zoompan:default
  Stream #19:0 (png) -> zoompan:default
  Stream #20:0 (png) -> zoompan:default
  Stream #21:0 (png) -> zoompan:default
  Stream #22:0 (png) -> zoompan:default
  Stream #23:0 (png) -> zoompan:default
  Stream #24:0 (png) -> zoompan:default
  Stream #25:0 (png) -> zoompan:default
  Stream #26:0 (png) -> zoompan:default
  Stream #27:0 (png) -> zoompan:default
  Stream #28:0 (png) -> zoompan:default
  Stream #29:0 (png) -> zoompan:default
  Stream #30:0 (png) -> zoompan:default
  Stream #31:0 (png) -> zoompan:default
  Stream #32:0 (png) -> zoompan:default
  Stream #33:0 (png) -> zoompan:default
  Stream #34:0 (png) -> zoompan:default
  Stream #35:0 (png) -> zoompan:default
  Stream #36:0 (png) -> zoompan:default
  Stream #37:0 (png) -> zoompan:default
  Stream #38:0 (png) -> zoompan:default
  Stream #39:0 (png) -> zoompan:default
  Stream #40:0 (png) -> zoompan:default
  Stream #41:0 (png) -> zoompan:default
  Stream #42:0 (png) -> zoompan:default
  Stream #43:0 (png) -> zoompan:default
  Stream #44:0 (png) -> zoompan:default
  Stream #45:0 (png) -> zoompan:default
  Stream #46:0 (png) -> zoompan:default
  Stream #47:0 (png) -> zoompan:default
  Stream #48:0 (png) -> zoompan:default
  Stream #49:0 (png) -> zoompan:default
  Stream #50:0 (mp3float) -> atrim:default
  Stream #51:0 (mp3float) -> adelay:default
  drawtext:default -> Stream #0:0 (libx264)
  asetpts:default -> Stream #0:1 (aac)
Press [q] to stop, [?] for help
[libx264 @ 0xc1600f103fd0] using cpu capabilities: ARMv8 NEON
[libx264 @ 0xc1600f103fd0] profile High, level 3.2, 4:2:0, 8-bit
[libx264 @ 0xc1600f103fd0] 264 - core 164 r3108 31e19f9 - H.264/MPEG-4 AVC codec - Copyleft 2003-2023 - http://www.videolan.org/x264.html - options: cabac=1 ref=3 deblock=1:0:0 analyse=0x3:0x113 me=hex subme=7 psy=1 psy_rd=1.00:0.00 mixed_ref=1 me_range=16 chroma_me=1 trellis=1 8x8dct=1 cqm=0 deadzone=21,11 fast_pskip=1 chroma_qp_offset=-2 threads=30 lookahead_threads=5 sliced_threads=0 nr=0 decimate=1 interlaced=0 bluray_compat=0 constrained_intra=0 bframes=3 b_pyramid=2 b_adapt=1 b_bias=0 direct=1 weightb=1 open_gop=0 weightp=2 keyint=250 keyint_min=25 scenecut=40 intra_refresh=0 rc_lookahead=40 rc=crf mbtree=1 crf=20.0 qcomp=0.60 qpmin=0 qpmax=69 qpstep=4 ip_ratio=1.40 aq=1:1.00
Output #0, mp4, to '/home/nmaldaner/projetos/timesmkt3/prj/inema/videos/criaprof/pediatra_2026-04-23/video/pediatra-criaprof.mp4':
  Metadata:
    encoder         : Lavf60.16.100
  Stream #0:0: Video: h264 (avc1 / 0x31637661), yuv420p(progressive), 1080x1080, q=2-31, 30 fps, 15360 tbn
    Metadata:
      encoder         : Lavc60.31.102 libx264
    Side data:
      cpb: bitrate max/min/avg: 0/0/0 buffer size: 0 vbv_delay: N/A
  Stream #0:1: Audio: aac (LC) (mp4a / 0x6134706D), 44100 Hz, stereo, fltp, 192 kb/s
    Metadata:
      encoder         : Lavc60.31.102 aac
frame=    0 fps=0.0 q=0.0 size=       0kB time=N/A bitrate=N/A speed=N/A    frame=    0 fps=0.0 q=0.0 size=       0kB time=00:00:01.39 bitrate=   0.3kbits/s speed=1.75x    frame=  122 fps= 94 q=26.0 size=    1280kB time=00:00:06.45 bitrate=1624.5kbits/s speed=4.97x    frame=  269 fps=147 q=23.0 size=    2816kB time=00:00:11.33 bitrate=2035.9kbits/s speed= 6.2x    frame=  428 fps=184 q=26.0 size=    4608kB time=00:00:16.67 bitrate=2264.2kbits/s speed=7.16x    frame=  605 fps=214 q=26.0 size=    5888kB time=00:00:22.52 bitrate=2141.5kbits/s speed=7.97x    frame=  759 fps=228 q=26.0 size=    7168kB time=00:00:27.67 bitrate=2121.5kbits/s speed=8.32x    frame=  926 fps=242 q=26.0 size=    8448kB time=00:00:33.25 bitrate=2081.3kbits/s speed=8.68x    frame= 1083 fps=250 q=26.0 size=    9728kB time=00:00:38.47 bitrate=2071.2kbits/s speed=8.89x    frame= 1254 fps=260 q=26.0 size=   10752kB time=00:00:44.18 bitrate=1993.3kbits/s speed=9.15x    [mp4 @ 0xc1600f102fe0] Starting second pass: moving the moov atom to the beginning of the file
[out#0/mp4 @ 0xc1600f102e70] video:10583kB audio:1081kB subtitle:0kB other streams:0kB global headers:0kB muxing overhead: 0.421538%
frame= 1350 fps=258 q=-1.0 Lsize=   11714kB time=00:00:44.97 bitrate=2133.5kbits/s speed=8.58x    
[libx264 @ 0xc1600f103fd0] frame I:34    Avg QP:15.39  size:112862
[libx264 @ 0xc1600f103fd0] frame P:346   Avg QP:19.59  size: 12119
[libx264 @ 0xc1600f103fd0] frame B:970   Avg QP:23.48  size:  2893
[libx264 @ 0xc1600f103fd0] consecutive B-frames:  2.8%  3.9%  0.9% 92.4%
[libx264 @ 0xc1600f103fd0] mb I  I16..4:  8.4% 78.8% 12.8%
[libx264 @ 0xc1600f103fd0] mb P  I16..4:  0.7%  4.2%  0.6%  P16..4: 37.2%  9.3%  4.8%  0.0%  0.0%    skip:43.2%
[libx264 @ 0xc1600f103fd0] mb B  I16..4:  0.0%  0.1%  0.0%  B16..8: 37.1%  0.7%  0.1%  direct: 1.1%  skip:60.8%  L0:54.8% L1:44.6% BI: 0.6%
[libx264 @ 0xc1600f103fd0] 8x8 transform intra:77.8% inter:94.0%
[libx264 @ 0xc1600f103fd0] coded y,uvDC,uvAC intra: 83.6% 83.3% 64.9% inter: 4.1% 10.1% 0.8%
[libx264 @ 0xc1600f103fd0] i16 v,h,dc,p: 35% 16%  3% 46%
[libx264 @ 0xc1600f103fd0] i8 v,h,dc,ddl,ddr,vr,hd,vl,hu: 23% 20% 16%  5%  7%  7%  7%  7%  8%
[libx264 @ 0xc1600f103fd0] i4 v,h,dc,ddl,ddr,vr,hd,vl,hu: 26% 21% 12%  5%  9%  8%  8%  5%  5%
[libx264 @ 0xc1600f103fd0] i8c dc,h,v,p: 39% 25% 26% 10%
[libx264 @ 0xc1600f103fd0] Weighted P-Frames: Y:0.0% UV:0.0%
[libx264 @ 0xc1600f103fd0] ref P L0: 76.5%  8.1%  9.2%  6.3%
[libx264 @ 0xc1600f103fd0] ref B L0: 90.7%  8.0%  1.3%
[libx264 @ 0xc1600f103fd0] ref B L1: 96.5%  3.5%
[libx264 @ 0xc1600f103fd0] kb/s:1926.52
[aac @ 0xc1600f105940] Qavg: 557.064
[pediatra] ✅ 11.4 MB em 5.7s

=== 2026-04-23T07:23:34.883Z node render-gertran.js pediatra ===
[gertran pediatra] render -> /home/nmaldaner/projetos/timesmkt3/prj/inema/videos/gertran/pediatra_2026-04-23/video/gertran-pediatra-31s.mp4
ffmpeg version 6.1.1-3ubuntu5 Copyright (c) 2000-2023 the FFmpeg developers
  built with gcc 13 (Ubuntu 13.2.0-23ubuntu3)
  configuration: --prefix=/usr --extra-version=3ubuntu5 --toolchain=hardened --libdir=/usr/lib/aarch64-linux-gnu --incdir=/usr/include/aarch64-linux-gnu --arch=arm64 --enable-gpl --disable-stripping --disable-omx --enable-gnutls --enable-libaom --enable-libass --enable-libbs2b --enable-libcaca --enable-libcdio --enable-libcodec2 --enable-libdav1d --enable-libflite --enable-libfontconfig --enable-libfreetype --enable-libfribidi --enable-libglslang --enable-libgme --enable-libgsm --enable-libharfbuzz --enable-libmp3lame --enable-libmysofa --enable-libopenjpeg --enable-libopenmpt --enable-libopus --enable-librubberband --enable-libshine --enable-libsnappy --enable-libsoxr --enable-libspeex --enable-libtheora --enable-libtwolame --enable-libvidstab --enable-libvorbis --enable-libvpx --enable-libwebp --enable-libx265 --enable-libxml2 --enable-libxvid --enable-libzimg --enable-openal --enable-opencl --enable-opengl --disable-sndio --enable-libdc1394 --enable-libdrm --enable-libiec61883 --enable-chromaprint --enable-frei0r --enable-ladspa --enable-libbluray --enable-libjack --enable-libpulse --enable-librabbitmq --enable-librist --enable-libsrt --enable-libssh --enable-libsvtav1 --enable-libx264 --enable-libzmq --enable-libzvbi --enable-lv2 --enable-sdl2 --enable-libplacebo --enable-librav1e --enable-pocketsphinx --enable-librsvg --enable-libjxl --enable-shared
  libavutil      58. 29.100 / 58. 29.100
  libavcodec     60. 31.102 / 60. 31.102
  libavformat    60. 16.100 / 60. 16.100
  libavdevice    60.  3.100 / 60.  3.100
  libavfilter     9. 12.100 /  9. 12.100
  libswscale      7.  5.100 /  7.  5.100
  libswresample   4. 12.100 /  4. 12.100
  libpostproc    57.  3.100 / 57.  3.100
Input #0, png_pipe, from '/home/nmaldaner/projetos/timesmkt3/prj/inema/videos/gertran-nostalgia/pediatra_2026-04-23/imgs/nost01.png':
  Duration: N/A, bitrate: N/A
  Stream #0:0: Video: png, rgb24(pc, gbr/unknown/unknown), 512x512, 30 fps, 30 tbr, 30 tbn
Input #1, png_pipe, from '/home/nmaldaner/projetos/timesmkt3/prj/inema/videos/gertran-nostalgia/pediatra_2026-04-23/imgs/nost02.png':
  Duration: N/A, bitrate: N/A
  Stream #1:0: Video: png, rgb24(pc, gbr/unknown/unknown), 512x512, 30 fps, 30 tbr, 30 tbn
Input #2, png_pipe, from '/home/nmaldaner/projetos/timesmkt3/prj/inema/videos/gertran-nostalgia/pediatra_2026-04-23/imgs/nost03.png':
  Duration: N/A, bitrate: N/A
  Stream #2:0: Video: png, rgb24(pc, gbr/unknown/unknown), 512x512, 30 fps, 30 tbr, 30 tbn
Input #3, png_pipe, from '/home/nmaldaner/projetos/timesmkt3/prj/inema/videos/gertran-nostalgia/pediatra_2026-04-23/imgs/nost04.png':
  Duration: N/A, bitrate: N/A
  Stream #3:0: Video: png, rgb24(pc, gbr/unknown/unknown), 512x512, 30 fps, 30 tbr, 30 tbn
Input #4, png_pipe, from '/home/nmaldaner/projetos/timesmkt3/prj/inema/videos/gertran-nostalgia/pediatra_2026-04-23/imgs/nost05.png':
  Duration: N/A, bitrate: N/A
  Stream #4:0: Video: png, rgb24(pc, gbr/unknown/unknown), 512x512, 30 fps, 30 tbr, 30 tbn
Input #5, png_pipe, from '/home/nmaldaner/projetos/timesmkt3/prj/inema/videos/gertran-nostalgia/pediatra_2026-04-23/imgs/nost06.png':
  Duration: N/A, bitrate: N/A
  Stream #5:0: Video: png, rgb24(pc, gbr/unknown/unknown), 512x512, 30 fps, 30 tbr, 30 tbn
Input #6, png_pipe, from '/home/nmaldaner/projetos/timesmkt3/prj/inema/videos/gertran-nostalgia/pediatra_2026-04-23/imgs/nost07.png':
  Duration: N/A, bitrate: N/A
  Stream #6:0: Video: png, rgb24(pc, gbr/unknown/unknown), 512x512, 30 fps, 30 tbr, 30 tbn
Input #7, png_pipe, from '/home/nmaldaner/projetos/timesmkt3/prj/inema/videos/gertran-nostalgia/pediatra_2026-04-23/imgs/nost08.png':
  Duration: N/A, bitrate: N/A
  Stream #7:0: Video: png, rgb24(pc, gbr/unknown/unknown), 512x512, 30 fps, 30 tbr, 30 tbn
Input #8, png_pipe, from '/home/nmaldaner/projetos/timesmkt3/prj/inema/videos/gertran-nostalgia/pediatra_2026-04-23/imgs/nost09.png':
  Duration: N/A, bitrate: N/A
  Stream #8:0: Video: png, rgb24(pc, gbr/unknown/unknown), 512x512, 30 fps, 30 tbr, 30 tbn
Input #9, png_pipe, from '/home/nmaldaner/projetos/timesmkt3/prj/inema/videos/gertran-nostalgia/pediatra_2026-04-23/imgs/nost10.png':
  Duration: N/A, bitrate: N/A
  Stream #9:0: Video: png, rgb24(pc, gbr/unknown/unknown), 512x512, 30 fps, 30 tbr, 30 tbn
Input #10, png_pipe, from '/home/nmaldaner/projetos/timesmkt3/prj/inema/videos/gertran-nostalgia/pediatra_2026-04-23/imgs/nost11.png':
  Duration: N/A, bitrate: N/A
  Stream #10:0: Video: png, rgb24(pc, gbr/unknown/unknown), 512x512, 30 fps, 30 tbr, 30 tbn
Input #11, png_pipe, from '/home/nmaldaner/projetos/timesmkt3/prj/inema/videos/gertran-nostalgia/pediatra_2026-04-23/imgs/nost12.png':
  Duration: N/A, bitrate: N/A
  Stream #11:0: Video: png, rgb24(pc, gbr/unknown/unknown), 512x512, 30 fps, 30 tbr, 30 tbn
Input #12, png_pipe, from '/home/nmaldaner/projetos/timesmkt3/prj/inema/videos/gertran-nostalgia/pediatra_2026-04-23/imgs/nost13.png':
  Duration: N/A, bitrate: N/A
  Stream #12:0: Video: png, rgb24(pc, gbr/unknown/unknown), 512x512, 30 fps, 30 tbr, 30 tbn
Input #13, png_pipe, from '/home/nmaldaner/projetos/timesmkt3/prj/inema/videos/gertran-nostalgia/pediatra_2026-04-23/imgs/nost14.png':
  Duration: N/A, bitrate: N/A
  Stream #13:0: Video: png, rgb24(pc, gbr/unknown/unknown), 512x512, 30 fps, 30 tbr, 30 tbn
Input #14, png_pipe, from '/home/nmaldaner/projetos/timesmkt3/prj/inema/videos/gertran-nostalgia/pediatra_2026-04-23/imgs/nost15.png':
  Duration: N/A, bitrate: N/A
  Stream #14:0: Video: png, rgb24(pc, gbr/unknown/unknown), 512x512, 30 fps, 30 tbr, 30 tbn
Input #15, png_pipe, from '/home/nmaldaner/projetos/timesmkt3/prj/inema/videos/gertran-nostalgia/pediatra_2026-04-23/imgs/nost16.png':
  Duration: N/A, bitrate: N/A
  Stream #15:0: Video: png, rgb24(pc, gbr/unknown/unknown), 512x512, 30 fps, 30 tbr, 30 tbn
Input #16, png_pipe, from '/home/nmaldaner/projetos/timesmkt3/prj/inema/videos/gertran-nostalgia/pediatra_2026-04-23/imgs/nost17.png':
  Duration: N/A, bitrate: N/A
  Stream #16:0: Video: png, rgb24(pc, gbr/unknown/unknown), 512x512, 30 fps, 30 tbr, 30 tbn
Input #17, png_pipe, from '/home/nmaldaner/projetos/timesmkt3/prj/inema/videos/gertran-nostalgia/pediatra_2026-04-23/imgs/nost18.png':
  Duration: N/A, bitrate: N/A
  Stream #17:0: Video: png, rgb24(pc, gbr/unknown/unknown), 512x512, 30 fps, 30 tbr, 30 tbn
Input #18, png_pipe, from '/home/nmaldaner/projetos/timesmkt3/prj/inema/videos/gertran-nostalgia/pediatra_2026-04-23/imgs/nost19.png':
  Duration: N/A, bitrate: N/A
  Stream #18:0: Video: png, rgb24(pc, gbr/unknown/unknown), 512x512, 30 fps, 30 tbr, 30 tbn
Input #19, png_pipe, from '/home/nmaldaner/projetos/timesmkt3/prj/inema/videos/gertran-nostalgia/pediatra_2026-04-23/imgs/nost20.png':
  Duration: N/A, bitrate: N/A
  Stream #19:0: Video: png, rgb24(pc, gbr/unknown/unknown), 512x512, 30 fps, 30 tbr, 30 tbn
Input #20, mp3, from '/tmp/musica_video/mulheres/freesound_719036_Melancholy_Background_Piano__-_bpm_112_l.mp3':
  Duration: 00:01:08.60, start: 0.025057, bitrate: 191 kb/s
  Stream #20:0: Audio: mp3, 44100 Hz, stereo, fltp, 191 kb/s
    Metadata:
      encoder         : LAME3.100
    Side data:
      replaygain: track gain - -5.600000, track peak - unknown, album gain - unknown, album peak - unknown, 
Input #21, mp3, from '/tmp/narr/narr-gertran-pediatra.mp3':
  Metadata:
    encoder         : Lavf60.16.100
  Duration: 00:00:16.90, start: 0.046042, bitrate: 128 kb/s
  Stream #21:0: Audio: mp3, 24000 Hz, mono, fltp, 128 kb/s
Stream mapping:
  Stream #0:0 (png) -> scale:default
  Stream #1:0 (png) -> scale:default
  Stream #2:0 (png) -> scale:default
  Stream #3:0 (png) -> scale:default
  Stream #4:0 (png) -> scale:default
  Stream #5:0 (png) -> scale:default
  Stream #6:0 (png) -> scale:default
  Stream #7:0 (png) -> scale:default
  Stream #8:0 (png) -> scale:default
  Stream #9:0 (png) -> scale:default
  Stream #10:0 (png) -> scale:default
  Stream #11:0 (png) -> scale:default
  Stream #12:0 (png) -> scale:default
  Stream #13:0 (png) -> scale:default
  Stream #14:0 (png) -> scale:default
  Stream #15:0 (png) -> scale:default
  Stream #16:0 (png) -> scale:default
  Stream #17:0 (png) -> scale:default
  Stream #18:0 (png) -> scale:default
  Stream #19:0 (png) -> scale:default
  Stream #20:0 (mp3float) -> atrim:default
  Stream #21:0 (mp3float) -> adelay:default
  drawtext:default -> Stream #0:0 (libx264)
  asetpts:default -> Stream #0:1 (aac)
Press [q] to stop, [?] for help
[libx264 @ 0xc50b8a163a90] using SAR=1/1
[libx264 @ 0xc50b8a163a90] using cpu capabilities: ARMv8 NEON
[libx264 @ 0xc50b8a163a90] profile High, level 4.0, 4:2:0, 8-bit
[libx264 @ 0xc50b8a163a90] 264 - core 164 r3108 31e19f9 - H.264/MPEG-4 AVC codec - Copyleft 2003-2023 - http://www.videolan.org/x264.html - options: cabac=1 ref=3 deblock=1:0:0 analyse=0x3:0x113 me=hex subme=7 psy=1 psy_rd=1.00:0.00 mixed_ref=1 me_range=16 chroma_me=1 trellis=1 8x8dct=1 cqm=0 deadzone=21,11 fast_pskip=1 chroma_qp_offset=-2 threads=30 lookahead_threads=5 sliced_threads=0 nr=0 decimate=1 interlaced=0 bluray_compat=0 constrained_intra=0 bframes=3 b_pyramid=2 b_adapt=1 b_bias=0 direct=1 weightb=1 open_gop=0 weightp=2 keyint=250 keyint_min=25 scenecut=40 intra_refresh=0 rc_lookahead=40 rc=crf mbtree=1 crf=20.0 qcomp=0.60 qpmin=0 qpmax=69 qpstep=4 ip_ratio=1.40 aq=1:1.00
Output #0, mp4, to '/home/nmaldaner/projetos/timesmkt3/prj/inema/videos/gertran/pediatra_2026-04-23/video/gertran-pediatra-31s.mp4':
  Metadata:
    encoder         : Lavf60.16.100
  Stream #0:0: Video: h264 (avc1 / 0x31637661), yuv420p(progressive), 1080x1920 [SAR 1:1 DAR 9:16], q=2-31, 30 fps, 15360 tbn
    Metadata:
      encoder         : Lavc60.31.102 libx264
    Side data:
      cpb: bitrate max/min/avg: 0/0/0 buffer size: 0 vbv_delay: N/A
  Stream #0:1: Audio: aac (LC) (mp4a / 0x6134706D), 44100 Hz, stereo, fltp, 192 kb/s
    Metadata:
      encoder         : Lavc60.31.102 aac
frame=    0 fps=0.0 q=0.0 size=       0kB time=N/A bitrate=N/A speed=N/A    frame=   33 fps= 26 q=26.0 size=       0kB time=00:00:03.43 bitrate=   0.1kbits/s speed=2.74x    frame=  182 fps=104 q=26.0 size=     768kB time=00:00:08.45 bitrate= 744.4kbits/s speed=4.82x    frame=  331 fps=147 q=26.0 size=    1536kB time=00:00:13.39 bitrate= 939.2kbits/s speed=5.94x    frame=  478 fps=174 q=26.0 size=    2304kB time=00:00:18.34 bitrate=1028.9kbits/s speed=6.66x    frame=  619 fps=190 q=26.0 size=    3072kB time=00:00:23.01 bitrate=1093.7kbits/s speed=7.07x    frame=  772 fps=206 q=26.0 size=    4096kB time=00:00:28.09 bitrate=1194.3kbits/s speed=7.48x    [mp4 @ 0xc50b8a162aa0] Starting second pass: moving the moov atom to the beginning of the file
[out#0/mp4 @ 0xc50b8a162930] video:4015kB audio:742kB subtitle:0kB other streams:0kB global headers:0kB muxing overhead: 0.715491%
frame=  930 fps=230 q=-1.0 Lsize=    4791kB time=00:00:30.99 bitrate=1266.2kbits/s speed=7.65x    
[libx264 @ 0xc50b8a163a90] frame I:4     Avg QP:10.28  size:155850
[libx264 @ 0xc50b8a163a90] frame P:244   Avg QP:14.12  size: 13839
[libx264 @ 0xc50b8a163a90] frame B:682   Avg QP:13.07  size:   162
[libx264 @ 0xc50b8a163a90] consecutive B-frames:  0.5%  1.7% 10.0% 87.7%
[libx264 @ 0xc50b8a163a90] mb I  I16..4: 43.7% 43.9% 12.4%
[libx264 @ 0xc50b8a163a90] mb P  I16..4:  5.1%  4.9%  0.7%  P16..4:  1.4%  0.2%  0.2%  0.0%  0.0%    skip:87.4%
[libx264 @ 0xc50b8a163a90] mb B  I16..4:  0.0%  0.0%  0.0%  B16..8:  0.5%  0.0%  0.0%  direct: 0.2%  skip:99.2%  L0:30.8% L1:68.2% BI: 1.0%
[libx264 @ 0xc50b8a163a90] 8x8 transform intra:45.4% inter:76.6%
[libx264 @ 0xc50b8a163a90] coded y,uvDC,uvAC intra: 41.2% 42.4% 38.6% inter: 0.2% 0.4% 0.0%
[libx264 @ 0xc50b8a163a90] i16 v,h,dc,p: 90%  6%  1%  4%
[libx264 @ 0xc50b8a163a90] i8 v,h,dc,ddl,ddr,vr,hd,vl,hu: 16% 22% 27%  5%  6%  5%  5%  5%  8%
[libx264 @ 0xc50b8a163a90] i4 v,h,dc,ddl,ddr,vr,hd,vl,hu: 25% 25% 14%  5%  9%  7%  6%  4%  5%
[libx264 @ 0xc50b8a163a90] i8c dc,h,v,p: 73% 13%  9%  5%
[libx264 @ 0xc50b8a163a90] Weighted P-Frames: Y:1.2% UV:0.8%
[libx264 @ 0xc50b8a163a90] ref P L0: 80.3%  1.9% 16.3%  1.6%  0.1%
[libx264 @ 0xc50b8a163a90] ref B L0: 70.2% 29.5%  0.3%
[libx264 @ 0xc50b8a163a90] ref B L1: 95.3%  4.7%
[libx264 @ 0xc50b8a163a90] kb/s:1060.82
[aac @ 0xc50b8a1653d0] Qavg: 567.492
[gertran pediatra] ✅ 4.7 MB em 4.3s
